<svg width="415" height="341" viewBox="0 0 415 341" fill="none" xmlns="http://www.w3.org/2000/svg">
<g clip-path="url(#clip0_2_2)">
<path d="M347.8 207.8C342.2 196.4 334.1 187.1 323.4 180C315.7 174.9 306.8 171 296.8 168.5C294.3 167.9 294.2 164.3 296.7 163.6C305.8 161.1 313.9 157.5 320.9 152.9C330.9 146.3 338.5 137.9 343.8 127.7C349 117.5 351.7 105.7 351.7 92.4C351.7 73 347.6 56.4 339.5 42.6C331.4 28.8 319.5 18.2 303.9 10.9C288.2 3.6 269.3 0 247.3 0L78.4 0.1C75.9 0.1 73.8 2.2 73.8 4.7V42C73.8 53 82.7 61.9 93.7 61.9C144.2 61.9 194.7 61.9 245.2 61.9C258.5 61.9 268.8 64.9 276 71C283.3 77.1 286.9 85.6 286.9 96.6C286.9 108.8 283.3 118.3 276 125C268.7 131.8 260.6 133.1 245.2 135.1C241.8 135.5 237.9 135.9 233.6 136.2C223.9 136.7 215.4 141.8 210.2 149.2H262C271.1 149.2 278.4 156.5 278.4 165.6C278.4 174.7 271.1 182 262 182H209C214.2 190.8 223.7 196.7 234.6 196.9C238 196.9 241.6 197 245.1 197.1C250.9 197.2 260.8 197.6 270.1 201.9C277.1 205.1 282.3 209.8 285.9 215.9C289.5 222 291.3 229.3 291.3 237.9V238.6C291.3 251.4 287.3 261.4 279.2 268.5C271.1 275.6 259.8 279.2 245.1 279.2L93.6 279.3C82.6 279.3 73.7 288.2 73.7 299.2V336.5C73.7 339 75.8 341.1 78.3 341.1L251.2 341.2C273.2 341.2 292.1 337.6 307.8 330.3C323.5 323 335.5 312.4 343.7 298.5C351.9 284.6 356 267.9 356 248.3V247.6C356.1 232.4 353.3 219.2 347.8 207.8Z" fill="#12957D"/>
<path d="M261.7 157.3H181.7L142 127.1C141.8 126.9 141.5 126.8 141.1 126.8H88.2C86.8 126.8 86.3 128.5 87.3 129.3L134.8 165.4L87.3 201.5C86.2 202.3 86.8 204 88.2 204H141.1C141.4 204 141.7 203.9 142 203.7L181.7 173.5H261.7C266.2 173.5 269.9 169.8 269.9 165.3C269.9 160.9 266.2 157.3 261.7 157.3Z" fill="#12957D"/>
<path d="M55.2 127.1C55 126.9 54.7 126.8 54.3 126.8H1.4C9.53674e-07 126.8 -0.499999 128.5 0.500001 129.3L48 165.4L0.600001 201.5C-0.499999 202.3 0.100001 204 1.5 204H54.4C54.7 204 55 203.9 55.3 203.7L105.8 165.4L55.2 127.1Z" fill="#12957D"/>
<path d="M311.9 166.3C311 166.1 311 164.9 311.9 164.7C315.2 164.1 318.6 163.1 322.2 161.7C341.4 154 351.1 137.3 354.9 129C355.7 127.4 357.7 126.8 359.1 127.8L414.6 165.9L359.1 203.1C357.6 204.1 355.6 203.5 354.9 201.9C351 193.6 341.2 176.5 321.6 168.9C318.3 167.7 315 166.8 311.9 166.3Z" fill="#12957D"/>
</g>
<defs>
<clipPath id="clip0_2_2">
<rect width="414.7" height="341" fill="white"/>
</clipPath>
</defs>
</svg>
